<mxfile host="Electron" agent="Mozilla/5.0 (Windows NT 10.0; Win64; x64) AppleWebKit/537.36 (KHTML, like Gecko) draw.io/26.2.15 Chrome/134.0.6998.205 Electron/35.2.1 Safari/537.36" version="26.2.15">
  <diagram name="Page-1" id="2YBvvXClWsGukQMizWep">
    <mxGraphModel dx="1628" dy="1816" grid="1" gridSize="10" guides="1" tooltips="1" connect="1" arrows="1" fold="1" page="1" pageScale="1" pageWidth="850" pageHeight="1100" math="0" shadow="0">
      <root>
        <mxCell id="0" />
        <mxCell id="1" parent="0" />
        <mxCell id="aM9ryv3xv72pqoxQDRHE-1" value=":Transporteur/livreurs" style="shape=umlLifeline;perimeter=lifelinePerimeter;whiteSpace=wrap;html=1;container=0;dropTarget=0;collapsible=0;recursiveResize=0;outlineConnect=0;portConstraint=eastwest;newEdgeStyle={&quot;edgeStyle&quot;:&quot;elbowEdgeStyle&quot;,&quot;elbow&quot;:&quot;vertical&quot;,&quot;curved&quot;:0,&quot;rounded&quot;:0};" parent="1" vertex="1">
          <mxGeometry x="30" y="-40" width="120" height="1480" as="geometry" />
        </mxCell>
        <mxCell id="C3Y-JflDdJjdfb_KIbu5-1" value="" style="html=1;points=[];perimeter=orthogonalPerimeter;outlineConnect=0;targetShapes=umlLifeline;portConstraint=eastwest;newEdgeStyle={&quot;edgeStyle&quot;:&quot;elbowEdgeStyle&quot;,&quot;elbow&quot;:&quot;vertical&quot;,&quot;curved&quot;:0,&quot;rounded&quot;:0};" vertex="1" parent="aM9ryv3xv72pqoxQDRHE-1">
          <mxGeometry x="55" y="60" width="10" height="1390" as="geometry" />
        </mxCell>
        <mxCell id="aM9ryv3xv72pqoxQDRHE-5" value=":SGE" style="shape=umlLifeline;perimeter=lifelinePerimeter;whiteSpace=wrap;html=1;container=0;dropTarget=0;collapsible=0;recursiveResize=0;outlineConnect=0;portConstraint=eastwest;newEdgeStyle={&quot;edgeStyle&quot;:&quot;elbowEdgeStyle&quot;,&quot;elbow&quot;:&quot;vertical&quot;,&quot;curved&quot;:0,&quot;rounded&quot;:0};" parent="1" vertex="1">
          <mxGeometry x="370" y="-40" width="100" height="1470" as="geometry" />
        </mxCell>
        <mxCell id="aM9ryv3xv72pqoxQDRHE-6" value="" style="html=1;points=[];perimeter=orthogonalPerimeter;outlineConnect=0;targetShapes=umlLifeline;portConstraint=eastwest;newEdgeStyle={&quot;edgeStyle&quot;:&quot;elbowEdgeStyle&quot;,&quot;elbow&quot;:&quot;vertical&quot;,&quot;curved&quot;:0,&quot;rounded&quot;:0};" parent="aM9ryv3xv72pqoxQDRHE-5" vertex="1">
          <mxGeometry x="45" y="60" width="10" height="1380" as="geometry" />
        </mxCell>
        <mxCell id="C3Y-JflDdJjdfb_KIbu5-6" value="" style="curved=1;endArrow=classic;html=1;rounded=0;" edge="1" parent="aM9ryv3xv72pqoxQDRHE-5" source="aM9ryv3xv72pqoxQDRHE-6" target="aM9ryv3xv72pqoxQDRHE-6">
          <mxGeometry width="50" height="50" relative="1" as="geometry">
            <mxPoint x="55" y="200" as="sourcePoint" />
            <mxPoint x="49.91176470588232" y="150" as="targetPoint" />
            <Array as="points">
              <mxPoint x="70" y="170" />
              <mxPoint x="80" y="160" />
              <mxPoint x="70" y="150" />
            </Array>
          </mxGeometry>
        </mxCell>
        <mxCell id="C3Y-JflDdJjdfb_KIbu5-13" value="" style="curved=1;endArrow=classic;html=1;rounded=0;" edge="1" parent="aM9ryv3xv72pqoxQDRHE-5" source="aM9ryv3xv72pqoxQDRHE-6" target="aM9ryv3xv72pqoxQDRHE-6">
          <mxGeometry width="50" height="50" relative="1" as="geometry">
            <mxPoint x="55" y="230" as="sourcePoint" />
            <mxPoint x="55" y="210" as="targetPoint" />
            <Array as="points">
              <mxPoint x="70" y="230" />
              <mxPoint x="80" y="220" />
              <mxPoint x="70" y="210" />
            </Array>
          </mxGeometry>
        </mxCell>
        <mxCell id="C3Y-JflDdJjdfb_KIbu5-18" value="" style="curved=1;endArrow=classic;html=1;rounded=0;" edge="1" parent="aM9ryv3xv72pqoxQDRHE-5">
          <mxGeometry width="50" height="50" relative="1" as="geometry">
            <mxPoint x="55.000000000000114" y="400" as="sourcePoint" />
            <mxPoint x="55.000000000000114" y="380" as="targetPoint" />
            <Array as="points">
              <mxPoint x="70" y="400" />
              <mxPoint x="80" y="390" />
              <mxPoint x="70" y="380" />
              <mxPoint x="60" y="380" />
            </Array>
          </mxGeometry>
        </mxCell>
        <mxCell id="C3Y-JflDdJjdfb_KIbu5-21" value="" style="curved=1;endArrow=classic;html=1;rounded=0;" edge="1" parent="aM9ryv3xv72pqoxQDRHE-5">
          <mxGeometry width="50" height="50" relative="1" as="geometry">
            <mxPoint x="55.000000000000114" y="490" as="sourcePoint" />
            <mxPoint x="55.000000000000114" y="470" as="targetPoint" />
            <Array as="points">
              <mxPoint x="72.5" y="490" />
              <mxPoint x="82.5" y="480" />
              <mxPoint x="72.5" y="470" />
            </Array>
          </mxGeometry>
        </mxCell>
        <mxCell id="C3Y-JflDdJjdfb_KIbu5-37" value="" style="curved=1;endArrow=classic;html=1;rounded=0;" edge="1" parent="aM9ryv3xv72pqoxQDRHE-5">
          <mxGeometry width="50" height="50" relative="1" as="geometry">
            <mxPoint x="55.000000000000114" y="540" as="sourcePoint" />
            <mxPoint x="55.000000000000114" y="520" as="targetPoint" />
            <Array as="points">
              <mxPoint x="72.5" y="540" />
              <mxPoint x="82.5" y="530" />
              <mxPoint x="72.5" y="520" />
            </Array>
          </mxGeometry>
        </mxCell>
        <mxCell id="C3Y-JflDdJjdfb_KIbu5-40" value="" style="curved=1;endArrow=classic;html=1;rounded=0;" edge="1" parent="aM9ryv3xv72pqoxQDRHE-5">
          <mxGeometry width="50" height="50" relative="1" as="geometry">
            <mxPoint x="55" y="760" as="sourcePoint" />
            <mxPoint x="55" y="740" as="targetPoint" />
            <Array as="points">
              <mxPoint x="72.5" y="760" />
              <mxPoint x="82.5" y="750" />
              <mxPoint x="72.5" y="740" />
            </Array>
          </mxGeometry>
        </mxCell>
        <mxCell id="C3Y-JflDdJjdfb_KIbu5-43" value="" style="curved=1;endArrow=classic;html=1;rounded=0;" edge="1" parent="aM9ryv3xv72pqoxQDRHE-5">
          <mxGeometry width="50" height="50" relative="1" as="geometry">
            <mxPoint x="55" y="850" as="sourcePoint" />
            <mxPoint x="55" y="830" as="targetPoint" />
            <Array as="points">
              <mxPoint x="72.5" y="850" />
              <mxPoint x="82.5" y="840" />
              <mxPoint x="72.5" y="830" />
            </Array>
          </mxGeometry>
        </mxCell>
        <mxCell id="C3Y-JflDdJjdfb_KIbu5-2" value=":Magasinier" style="shape=umlLifeline;perimeter=lifelinePerimeter;whiteSpace=wrap;html=1;container=0;dropTarget=0;collapsible=0;recursiveResize=0;outlineConnect=0;portConstraint=eastwest;newEdgeStyle={&quot;edgeStyle&quot;:&quot;elbowEdgeStyle&quot;,&quot;elbow&quot;:&quot;vertical&quot;,&quot;curved&quot;:0,&quot;rounded&quot;:0};" vertex="1" parent="1">
          <mxGeometry x="660" y="-40" width="100" height="1480" as="geometry" />
        </mxCell>
        <mxCell id="C3Y-JflDdJjdfb_KIbu5-3" value="" style="html=1;points=[];perimeter=orthogonalPerimeter;outlineConnect=0;targetShapes=umlLifeline;portConstraint=eastwest;newEdgeStyle={&quot;edgeStyle&quot;:&quot;elbowEdgeStyle&quot;,&quot;elbow&quot;:&quot;vertical&quot;,&quot;curved&quot;:0,&quot;rounded&quot;:0};" vertex="1" parent="C3Y-JflDdJjdfb_KIbu5-2">
          <mxGeometry x="45" y="60" width="10" height="1380" as="geometry" />
        </mxCell>
        <mxCell id="C3Y-JflDdJjdfb_KIbu5-4" value="" style="endArrow=classic;html=1;rounded=0;" edge="1" parent="1" source="C3Y-JflDdJjdfb_KIbu5-1" target="aM9ryv3xv72pqoxQDRHE-6">
          <mxGeometry width="50" height="50" relative="1" as="geometry">
            <mxPoint x="100" y="60" as="sourcePoint" />
            <mxPoint x="420" y="60" as="targetPoint" />
            <Array as="points">
              <mxPoint x="245" y="60" />
              <mxPoint x="305" y="60" />
            </Array>
          </mxGeometry>
        </mxCell>
        <mxCell id="C3Y-JflDdJjdfb_KIbu5-5" value="&lt;font style=&quot;font-size: 9px;&quot;&gt;Arrivée de &quot;colis&quot;&lt;/font&gt;" style="text;html=1;align=center;verticalAlign=middle;resizable=0;points=[];autosize=1;strokeColor=none;fillColor=none;" vertex="1" parent="1">
          <mxGeometry x="200" y="30" width="90" height="30" as="geometry" />
        </mxCell>
        <mxCell id="C3Y-JflDdJjdfb_KIbu5-10" value="&lt;font style=&quot;font-size: 9px;&quot;&gt;créer COLIS (statut = entrant)&lt;/font&gt;" style="text;html=1;align=center;verticalAlign=middle;resizable=0;points=[];autosize=1;strokeColor=none;fillColor=none;" vertex="1" parent="1">
          <mxGeometry x="350" y="80" width="140" height="30" as="geometry" />
        </mxCell>
        <mxCell id="C3Y-JflDdJjdfb_KIbu5-14" value="&lt;font style=&quot;font-size: 8px;&quot;&gt;créer INVENTAIRE_COLIS_ENTRANT&amp;nbsp;&lt;/font&gt;" style="text;html=1;align=center;verticalAlign=middle;resizable=0;points=[];autosize=1;strokeColor=none;fillColor=none;" vertex="1" parent="1">
          <mxGeometry x="360" y="140" width="160" height="30" as="geometry" />
        </mxCell>
        <mxCell id="C3Y-JflDdJjdfb_KIbu5-16" value="Accusé de réception" style="endArrow=open;endSize=12;dashed=1;html=1;rounded=0;" edge="1" parent="1" source="aM9ryv3xv72pqoxQDRHE-5" target="C3Y-JflDdJjdfb_KIbu5-1">
          <mxGeometry width="160" relative="1" as="geometry">
            <mxPoint x="220" y="210" as="sourcePoint" />
            <mxPoint x="380" y="210" as="targetPoint" />
            <Array as="points">
              <mxPoint x="290" y="210" />
            </Array>
          </mxGeometry>
        </mxCell>
        <mxCell id="C3Y-JflDdJjdfb_KIbu5-17" value="loop" style="shape=umlFrame;whiteSpace=wrap;html=1;pointerEvents=0;" vertex="1" parent="1">
          <mxGeometry x="300" y="370" width="250" height="140" as="geometry" />
        </mxCell>
        <mxCell id="C3Y-JflDdJjdfb_KIbu5-19" value="&lt;font style=&quot;font-size: 8px;&quot;&gt;lire CONTENU_COLIS(idColis)&lt;/font&gt;" style="text;html=1;align=center;verticalAlign=middle;resizable=0;points=[];autosize=1;strokeColor=none;fillColor=none;" vertex="1" parent="1">
          <mxGeometry x="365" y="400" width="130" height="30" as="geometry" />
        </mxCell>
        <mxCell id="C3Y-JflDdJjdfb_KIbu5-20" value="&lt;font style=&quot;font-size: 8px;&quot;&gt;[Pour chaque lot dans le colis]&lt;/font&gt;" style="text;html=1;align=center;verticalAlign=middle;resizable=0;points=[];autosize=1;strokeColor=none;fillColor=none;" vertex="1" parent="1">
          <mxGeometry x="360" y="370" width="130" height="30" as="geometry" />
        </mxCell>
        <mxCell id="C3Y-JflDdJjdfb_KIbu5-22" value="&lt;font style=&quot;font-size: 8px;&quot;&gt;créer LIGNES_BONS_RECEPTION(quantitéAttendue)&lt;/font&gt;" style="text;html=1;align=center;verticalAlign=middle;resizable=0;points=[];autosize=1;strokeColor=none;fillColor=none;" vertex="1" parent="1">
          <mxGeometry x="330" y="455" width="220" height="30" as="geometry" />
        </mxCell>
        <mxCell id="C3Y-JflDdJjdfb_KIbu5-24" value="&lt;font style=&quot;font-size: 8px;&quot;&gt;créer un BON_RECEPTION&lt;/font&gt;" style="text;html=1;align=center;verticalAlign=middle;resizable=0;points=[];autosize=1;strokeColor=none;fillColor=none;" vertex="1" parent="1">
          <mxGeometry x="365" y="310" width="120" height="30" as="geometry" />
        </mxCell>
        <mxCell id="C3Y-JflDdJjdfb_KIbu5-26" value="&lt;font style=&quot;font-size: 9px;&quot;&gt;Demande de création de BON_RECEPTION&lt;/font&gt;" style="text;html=1;align=center;verticalAlign=middle;resizable=0;points=[];autosize=1;strokeColor=none;fillColor=none;" vertex="1" parent="1">
          <mxGeometry x="470" y="250" width="200" height="30" as="geometry" />
        </mxCell>
        <mxCell id="C3Y-JflDdJjdfb_KIbu5-30" value="" style="endArrow=classic;html=1;rounded=0;" edge="1" parent="1" source="C3Y-JflDdJjdfb_KIbu5-3" target="aM9ryv3xv72pqoxQDRHE-6">
          <mxGeometry width="50" height="50" relative="1" as="geometry">
            <mxPoint x="510" y="350" as="sourcePoint" />
            <mxPoint x="560" y="300" as="targetPoint" />
            <Array as="points">
              <mxPoint x="560" y="280" />
            </Array>
          </mxGeometry>
        </mxCell>
        <mxCell id="C3Y-JflDdJjdfb_KIbu5-34" value="&lt;font style=&quot;font-size: 9px;&quot;&gt;Bon de reception créé (idBon)&lt;/font&gt;" style="endArrow=open;endSize=12;dashed=1;html=1;rounded=0;" edge="1" parent="1" source="aM9ryv3xv72pqoxQDRHE-6" target="C3Y-JflDdJjdfb_KIbu5-3">
          <mxGeometry width="160" relative="1" as="geometry">
            <mxPoint x="490" y="610" as="sourcePoint" />
            <mxPoint x="650" y="610" as="targetPoint" />
            <Array as="points">
              <mxPoint x="570" y="550" />
            </Array>
            <mxPoint as="offset" />
          </mxGeometry>
        </mxCell>
        <mxCell id="C3Y-JflDdJjdfb_KIbu5-35" value="" style="endArrow=classic;html=1;rounded=0;" edge="1" parent="1" source="C3Y-JflDdJjdfb_KIbu5-3" target="aM9ryv3xv72pqoxQDRHE-6">
          <mxGeometry width="50" height="50" relative="1" as="geometry">
            <mxPoint x="500" y="690" as="sourcePoint" />
            <mxPoint x="550" y="640" as="targetPoint" />
            <Array as="points">
              <mxPoint x="570" y="610" />
            </Array>
          </mxGeometry>
        </mxCell>
        <mxCell id="C3Y-JflDdJjdfb_KIbu5-36" value="&lt;font style=&quot;font-size: 9px;&quot;&gt;Saisi quantités reçues (quantiteRecue)&lt;/font&gt;" style="text;html=1;align=center;verticalAlign=middle;resizable=0;points=[];autosize=1;strokeColor=none;fillColor=none;" vertex="1" parent="1">
          <mxGeometry x="480" y="580" width="180" height="30" as="geometry" />
        </mxCell>
        <mxCell id="C3Y-JflDdJjdfb_KIbu5-38" value="opt" style="shape=umlFrame;whiteSpace=wrap;html=1;pointerEvents=0;" vertex="1" parent="1">
          <mxGeometry x="290" y="645" width="270" height="95" as="geometry" />
        </mxCell>
        <mxCell id="C3Y-JflDdJjdfb_KIbu5-39" value="&lt;font style=&quot;font-size: 9px;&quot;&gt;[Quantité reçue &amp;lt;&amp;gt; quantité attendue]&lt;/font&gt;" style="text;html=1;align=center;verticalAlign=middle;resizable=0;points=[];autosize=1;strokeColor=none;fillColor=none;" vertex="1" parent="1">
          <mxGeometry x="365" y="650" width="170" height="30" as="geometry" />
        </mxCell>
        <mxCell id="C3Y-JflDdJjdfb_KIbu5-41" value="&lt;font style=&quot;font-size: 9px;&quot;&gt;créer RAPPORT_EXCEPTION&lt;/font&gt;" style="text;html=1;align=center;verticalAlign=middle;resizable=0;points=[];autosize=1;strokeColor=none;fillColor=none;" vertex="1" parent="1">
          <mxGeometry x="360" y="670" width="150" height="30" as="geometry" />
        </mxCell>
        <mxCell id="C3Y-JflDdJjdfb_KIbu5-44" value="&lt;font style=&quot;font-size: 9px;&quot;&gt;Mettre à jour LIGNES_BON_RECEPTION&lt;/font&gt;" style="text;html=1;align=center;verticalAlign=middle;resizable=0;points=[];autosize=1;strokeColor=none;fillColor=none;" vertex="1" parent="1">
          <mxGeometry x="325" y="760" width="190" height="30" as="geometry" />
        </mxCell>
        <mxCell id="C3Y-JflDdJjdfb_KIbu5-45" value="&lt;font style=&quot;font-size: 9px;&quot;&gt;Confirmation mise à jour&lt;/font&gt;" style="endArrow=open;endSize=12;dashed=1;html=1;rounded=0;" edge="1" parent="1" source="aM9ryv3xv72pqoxQDRHE-6" target="C3Y-JflDdJjdfb_KIbu5-3">
          <mxGeometry width="160" relative="1" as="geometry">
            <mxPoint x="610" y="1000" as="sourcePoint" />
            <mxPoint x="770" y="1000" as="targetPoint" />
            <Array as="points">
              <mxPoint x="560" y="830" />
            </Array>
          </mxGeometry>
        </mxCell>
        <mxCell id="C3Y-JflDdJjdfb_KIbu5-47" value="" style="curved=1;endArrow=classic;html=1;rounded=0;" edge="1" parent="1">
          <mxGeometry width="50" height="50" relative="1" as="geometry">
            <mxPoint x="425" y="890" as="sourcePoint" />
            <mxPoint x="425" y="870" as="targetPoint" />
            <Array as="points">
              <mxPoint x="442.5" y="890" />
              <mxPoint x="452.5" y="880" />
              <mxPoint x="442.5" y="870" />
            </Array>
          </mxGeometry>
        </mxCell>
        <mxCell id="C3Y-JflDdJjdfb_KIbu5-48" value="&lt;font style=&quot;font-size: 9px;&quot;&gt;créer ou mettre à jour LOT&lt;/font&gt;" style="text;html=1;align=center;verticalAlign=middle;resizable=0;points=[];autosize=1;strokeColor=none;fillColor=none;" vertex="1" parent="1">
          <mxGeometry x="365" y="840" width="130" height="30" as="geometry" />
        </mxCell>
        <mxCell id="C3Y-JflDdJjdfb_KIbu5-49" value="" style="curved=1;endArrow=classic;html=1;rounded=0;" edge="1" parent="1">
          <mxGeometry width="50" height="50" relative="1" as="geometry">
            <mxPoint x="425" y="990" as="sourcePoint" />
            <mxPoint x="425" y="970" as="targetPoint" />
            <Array as="points">
              <mxPoint x="442.5" y="990" />
              <mxPoint x="452.5" y="980" />
              <mxPoint x="442.5" y="970" />
            </Array>
          </mxGeometry>
        </mxCell>
        <mxCell id="C3Y-JflDdJjdfb_KIbu5-50" value="&lt;font style=&quot;font-size: 9px;&quot;&gt;mettre à jour INVENTAIRE_PRODUIT&lt;/font&gt;" style="text;html=1;align=center;verticalAlign=middle;resizable=0;points=[];autosize=1;strokeColor=none;fillColor=none;" vertex="1" parent="1">
          <mxGeometry x="325" y="940" width="180" height="30" as="geometry" />
        </mxCell>
        <mxCell id="C3Y-JflDdJjdfb_KIbu5-51" value="" style="endArrow=classic;html=1;rounded=0;" edge="1" parent="1" source="C3Y-JflDdJjdfb_KIbu5-3" target="aM9ryv3xv72pqoxQDRHE-6">
          <mxGeometry width="50" height="50" relative="1" as="geometry">
            <mxPoint x="520" y="1180" as="sourcePoint" />
            <mxPoint x="570" y="1130" as="targetPoint" />
            <Array as="points">
              <mxPoint x="560" y="1020" />
            </Array>
          </mxGeometry>
        </mxCell>
        <mxCell id="C3Y-JflDdJjdfb_KIbu5-52" value="&lt;font style=&quot;font-size: 9px;&quot;&gt;Assigner l&#39;emplacement(idCellule, idLot)&lt;/font&gt;" style="text;html=1;align=center;verticalAlign=middle;resizable=0;points=[];autosize=1;strokeColor=none;fillColor=none;" vertex="1" parent="1">
          <mxGeometry x="490" y="990" width="180" height="30" as="geometry" />
        </mxCell>
        <mxCell id="C3Y-JflDdJjdfb_KIbu5-53" value="" style="curved=1;endArrow=classic;html=1;rounded=0;" edge="1" parent="1">
          <mxGeometry width="50" height="50" relative="1" as="geometry">
            <mxPoint x="425" y="1080" as="sourcePoint" />
            <mxPoint x="425" y="1060" as="targetPoint" />
            <Array as="points">
              <mxPoint x="442.5" y="1080" />
              <mxPoint x="452.5" y="1070" />
              <mxPoint x="442.5" y="1060" />
            </Array>
          </mxGeometry>
        </mxCell>
        <mxCell id="C3Y-JflDdJjdfb_KIbu5-54" value="&lt;font style=&quot;font-size: 9px;&quot;&gt;Créer INVENTAIRE_EMPLACEMENT&lt;/font&gt;" style="text;html=1;align=center;verticalAlign=middle;resizable=0;points=[];autosize=1;strokeColor=none;fillColor=none;" vertex="1" parent="1">
          <mxGeometry x="340" y="1030" width="180" height="30" as="geometry" />
        </mxCell>
        <mxCell id="C3Y-JflDdJjdfb_KIbu5-55" value="&lt;font style=&quot;font-size: 9px;&quot;&gt;Confirmation stockage&lt;/font&gt;" style="endArrow=open;endSize=12;dashed=1;html=1;rounded=0;" edge="1" parent="1" source="aM9ryv3xv72pqoxQDRHE-6" target="C3Y-JflDdJjdfb_KIbu5-3">
          <mxGeometry width="160" relative="1" as="geometry">
            <mxPoint x="460" y="1230" as="sourcePoint" />
            <mxPoint x="620" y="1230" as="targetPoint" />
            <Array as="points">
              <mxPoint x="560" y="1100" />
            </Array>
          </mxGeometry>
        </mxCell>
        <mxCell id="C3Y-JflDdJjdfb_KIbu5-57" value="" style="curved=1;endArrow=classic;html=1;rounded=0;" edge="1" parent="1">
          <mxGeometry width="50" height="50" relative="1" as="geometry">
            <mxPoint x="425" y="1160" as="sourcePoint" />
            <mxPoint x="425" y="1140" as="targetPoint" />
            <Array as="points">
              <mxPoint x="442.5" y="1160" />
              <mxPoint x="452.5" y="1150" />
              <mxPoint x="442.5" y="1140" />
            </Array>
          </mxGeometry>
        </mxCell>
        <mxCell id="C3Y-JflDdJjdfb_KIbu5-58" value="&lt;font style=&quot;font-size: 9px;&quot;&gt;Mettre à jour COLIS (statut=&quot;stocké&quot;)&lt;/font&gt;" style="text;html=1;align=center;verticalAlign=middle;resizable=0;points=[];autosize=1;strokeColor=none;fillColor=none;" vertex="1" parent="1">
          <mxGeometry x="345" y="1110" width="170" height="30" as="geometry" />
        </mxCell>
        <mxCell id="C3Y-JflDdJjdfb_KIbu5-59" value="&lt;font style=&quot;font-size: 9px;&quot;&gt;Mettre à jour INVENTAIRE_COLIS_ENTRANT&lt;/font&gt;" style="text;html=1;align=center;verticalAlign=middle;resizable=0;points=[];autosize=1;strokeColor=none;fillColor=none;" vertex="1" parent="1">
          <mxGeometry x="320" y="1170" width="210" height="30" as="geometry" />
        </mxCell>
        <mxCell id="C3Y-JflDdJjdfb_KIbu5-60" value="" style="curved=1;endArrow=classic;html=1;rounded=0;" edge="1" parent="1">
          <mxGeometry width="50" height="50" relative="1" as="geometry">
            <mxPoint x="425" y="1220" as="sourcePoint" />
            <mxPoint x="425" y="1200" as="targetPoint" />
            <Array as="points">
              <mxPoint x="442.5" y="1220" />
              <mxPoint x="452.5" y="1210" />
              <mxPoint x="442.5" y="1200" />
            </Array>
          </mxGeometry>
        </mxCell>
        <mxCell id="C3Y-JflDdJjdfb_KIbu5-61" value="Reception finalisée" style="endArrow=open;endSize=12;dashed=1;html=1;rounded=0;" edge="1" parent="1" source="aM9ryv3xv72pqoxQDRHE-6" target="C3Y-JflDdJjdfb_KIbu5-3">
          <mxGeometry width="160" relative="1" as="geometry">
            <mxPoint x="450" y="1380" as="sourcePoint" />
            <mxPoint x="610" y="1380" as="targetPoint" />
            <Array as="points">
              <mxPoint x="560" y="1230" />
            </Array>
          </mxGeometry>
        </mxCell>
        <mxCell id="C3Y-JflDdJjdfb_KIbu5-62" value="&lt;b&gt;&lt;font style=&quot;font-size: 24px;&quot;&gt;Cas de réception&lt;/font&gt;&lt;/b&gt;" style="text;html=1;align=center;verticalAlign=middle;resizable=0;points=[];autosize=1;strokeColor=none;fillColor=none;" vertex="1" parent="1">
          <mxGeometry x="305" y="-140" width="220" height="40" as="geometry" />
        </mxCell>
        <mxCell id="C3Y-JflDdJjdfb_KIbu5-63" value=":SGE" style="shape=umlLifeline;perimeter=lifelinePerimeter;whiteSpace=wrap;html=1;container=0;dropTarget=0;collapsible=0;recursiveResize=0;outlineConnect=0;portConstraint=eastwest;newEdgeStyle={&quot;edgeStyle&quot;:&quot;elbowEdgeStyle&quot;,&quot;elbow&quot;:&quot;vertical&quot;,&quot;curved&quot;:0,&quot;rounded&quot;:0};" vertex="1" parent="1">
          <mxGeometry x="1625" y="-40" width="100" height="1470" as="geometry" />
        </mxCell>
        <mxCell id="C3Y-JflDdJjdfb_KIbu5-64" value="" style="html=1;points=[];perimeter=orthogonalPerimeter;outlineConnect=0;targetShapes=umlLifeline;portConstraint=eastwest;newEdgeStyle={&quot;edgeStyle&quot;:&quot;elbowEdgeStyle&quot;,&quot;elbow&quot;:&quot;vertical&quot;,&quot;curved&quot;:0,&quot;rounded&quot;:0};" vertex="1" parent="C3Y-JflDdJjdfb_KIbu5-63">
          <mxGeometry x="45" y="60" width="10" height="1380" as="geometry" />
        </mxCell>
        <mxCell id="C3Y-JflDdJjdfb_KIbu5-65" value="" style="curved=1;endArrow=classic;html=1;rounded=0;" edge="1" parent="C3Y-JflDdJjdfb_KIbu5-63">
          <mxGeometry width="50" height="50" relative="1" as="geometry">
            <mxPoint x="55" y="200" as="sourcePoint" />
            <mxPoint x="55" y="180" as="targetPoint" />
            <Array as="points">
              <mxPoint x="70" y="200" />
              <mxPoint x="80" y="190" />
              <mxPoint x="70" y="180" />
            </Array>
          </mxGeometry>
        </mxCell>
        <mxCell id="C3Y-JflDdJjdfb_KIbu5-66" value="" style="curved=1;endArrow=classic;html=1;rounded=0;" edge="1" parent="C3Y-JflDdJjdfb_KIbu5-63">
          <mxGeometry width="50" height="50" relative="1" as="geometry">
            <mxPoint x="55" y="250" as="sourcePoint" />
            <mxPoint x="55" y="230" as="targetPoint" />
            <Array as="points">
              <mxPoint x="70" y="250" />
              <mxPoint x="80" y="240" />
              <mxPoint x="70" y="230" />
            </Array>
          </mxGeometry>
        </mxCell>
        <mxCell id="C3Y-JflDdJjdfb_KIbu5-67" value="" style="curved=1;endArrow=classic;html=1;rounded=0;" edge="1" parent="C3Y-JflDdJjdfb_KIbu5-63">
          <mxGeometry width="50" height="50" relative="1" as="geometry">
            <mxPoint x="55.000000000000114" y="370" as="sourcePoint" />
            <mxPoint x="55.000000000000114" y="350" as="targetPoint" />
            <Array as="points">
              <mxPoint x="70" y="370" />
              <mxPoint x="80" y="360" />
              <mxPoint x="70" y="350" />
            </Array>
          </mxGeometry>
        </mxCell>
        <mxCell id="C3Y-JflDdJjdfb_KIbu5-68" value="" style="curved=1;endArrow=classic;html=1;rounded=0;" edge="1" parent="C3Y-JflDdJjdfb_KIbu5-63">
          <mxGeometry width="50" height="50" relative="1" as="geometry">
            <mxPoint x="55.000000000000114" y="480" as="sourcePoint" />
            <mxPoint x="55.000000000000114" y="460" as="targetPoint" />
            <Array as="points">
              <mxPoint x="72.5" y="480" />
              <mxPoint x="82.5" y="470" />
              <mxPoint x="72.5" y="460" />
            </Array>
          </mxGeometry>
        </mxCell>
        <mxCell id="C3Y-JflDdJjdfb_KIbu5-69" value="" style="curved=1;endArrow=classic;html=1;rounded=0;" edge="1" parent="C3Y-JflDdJjdfb_KIbu5-63">
          <mxGeometry width="50" height="50" relative="1" as="geometry">
            <mxPoint x="55.000000000000114" y="530" as="sourcePoint" />
            <mxPoint x="55.000000000000114" y="510" as="targetPoint" />
            <Array as="points">
              <mxPoint x="72.5" y="530" />
              <mxPoint x="82.5" y="520" />
              <mxPoint x="72.5" y="510" />
            </Array>
          </mxGeometry>
        </mxCell>
        <mxCell id="C3Y-JflDdJjdfb_KIbu5-70" value="" style="curved=1;endArrow=classic;html=1;rounded=0;" edge="1" parent="C3Y-JflDdJjdfb_KIbu5-63">
          <mxGeometry width="50" height="50" relative="1" as="geometry">
            <mxPoint x="55" y="760" as="sourcePoint" />
            <mxPoint x="55" y="740" as="targetPoint" />
            <Array as="points">
              <mxPoint x="72.5" y="760" />
              <mxPoint x="82.5" y="750" />
              <mxPoint x="72.5" y="740" />
            </Array>
          </mxGeometry>
        </mxCell>
        <mxCell id="C3Y-JflDdJjdfb_KIbu5-71" value="" style="curved=1;endArrow=classic;html=1;rounded=0;" edge="1" parent="C3Y-JflDdJjdfb_KIbu5-63">
          <mxGeometry width="50" height="50" relative="1" as="geometry">
            <mxPoint x="55" y="840" as="sourcePoint" />
            <mxPoint x="55" y="820" as="targetPoint" />
            <Array as="points">
              <mxPoint x="72.5" y="840" />
              <mxPoint x="82.5" y="830" />
              <mxPoint x="72.5" y="820" />
            </Array>
          </mxGeometry>
        </mxCell>
        <mxCell id="C3Y-JflDdJjdfb_KIbu5-101" value="" style="curved=1;endArrow=classic;html=1;rounded=0;" edge="1" parent="C3Y-JflDdJjdfb_KIbu5-63">
          <mxGeometry width="50" height="50" relative="1" as="geometry">
            <mxPoint x="55" y="910" as="sourcePoint" />
            <mxPoint x="55" y="890" as="targetPoint" />
            <Array as="points">
              <mxPoint x="73.75" y="910" />
              <mxPoint x="83.75" y="900" />
              <mxPoint x="73.75" y="890" />
            </Array>
          </mxGeometry>
        </mxCell>
        <mxCell id="C3Y-JflDdJjdfb_KIbu5-103" value="" style="curved=1;endArrow=classic;html=1;rounded=0;" edge="1" parent="C3Y-JflDdJjdfb_KIbu5-63" source="C3Y-JflDdJjdfb_KIbu5-64" target="C3Y-JflDdJjdfb_KIbu5-64">
          <mxGeometry width="50" height="50" relative="1" as="geometry">
            <mxPoint x="56.25" y="970" as="sourcePoint" />
            <mxPoint x="56.25" y="950" as="targetPoint" />
            <Array as="points">
              <mxPoint x="73.75" y="970" />
              <mxPoint x="83.75" y="960" />
              <mxPoint x="73.75" y="950" />
            </Array>
          </mxGeometry>
        </mxCell>
        <mxCell id="C3Y-JflDdJjdfb_KIbu5-107" value="" style="curved=1;endArrow=classic;html=1;rounded=0;" edge="1" parent="C3Y-JflDdJjdfb_KIbu5-63">
          <mxGeometry width="50" height="50" relative="1" as="geometry">
            <mxPoint x="55" y="1060" as="sourcePoint" />
            <mxPoint x="55" y="1040" as="targetPoint" />
            <Array as="points">
              <mxPoint x="73.75" y="1060" />
              <mxPoint x="83.75" y="1050" />
              <mxPoint x="73.75" y="1040" />
            </Array>
          </mxGeometry>
        </mxCell>
        <mxCell id="C3Y-JflDdJjdfb_KIbu5-112" value="" style="curved=1;endArrow=classic;html=1;rounded=0;" edge="1" parent="C3Y-JflDdJjdfb_KIbu5-63" source="C3Y-JflDdJjdfb_KIbu5-64" target="C3Y-JflDdJjdfb_KIbu5-64">
          <mxGeometry width="50" height="50" relative="1" as="geometry">
            <mxPoint x="51.25" y="1140" as="sourcePoint" />
            <mxPoint x="51.25" y="1120" as="targetPoint" />
            <Array as="points">
              <mxPoint x="68.75" y="1140" />
              <mxPoint x="78.75" y="1130" />
              <mxPoint x="68.75" y="1120" />
            </Array>
          </mxGeometry>
        </mxCell>
        <mxCell id="C3Y-JflDdJjdfb_KIbu5-113" value="" style="curved=1;endArrow=classic;html=1;rounded=0;" edge="1" parent="C3Y-JflDdJjdfb_KIbu5-63" source="C3Y-JflDdJjdfb_KIbu5-64" target="C3Y-JflDdJjdfb_KIbu5-64">
          <mxGeometry width="50" height="50" relative="1" as="geometry">
            <mxPoint x="56.25" y="1200" as="sourcePoint" />
            <mxPoint x="56.25" y="1180" as="targetPoint" />
            <Array as="points">
              <mxPoint x="73.75" y="1200" />
              <mxPoint x="83.75" y="1190" />
              <mxPoint x="73.75" y="1180" />
            </Array>
          </mxGeometry>
        </mxCell>
        <mxCell id="C3Y-JflDdJjdfb_KIbu5-72" value=":Magasinier" style="shape=umlLifeline;perimeter=lifelinePerimeter;whiteSpace=wrap;html=1;container=0;dropTarget=0;collapsible=0;recursiveResize=0;outlineConnect=0;portConstraint=eastwest;newEdgeStyle={&quot;edgeStyle&quot;:&quot;elbowEdgeStyle&quot;,&quot;elbow&quot;:&quot;vertical&quot;,&quot;curved&quot;:0,&quot;rounded&quot;:0};" vertex="1" parent="1">
          <mxGeometry x="2015" y="-40" width="100" height="1480" as="geometry" />
        </mxCell>
        <mxCell id="C3Y-JflDdJjdfb_KIbu5-73" value="" style="html=1;points=[];perimeter=orthogonalPerimeter;outlineConnect=0;targetShapes=umlLifeline;portConstraint=eastwest;newEdgeStyle={&quot;edgeStyle&quot;:&quot;elbowEdgeStyle&quot;,&quot;elbow&quot;:&quot;vertical&quot;,&quot;curved&quot;:0,&quot;rounded&quot;:0};" vertex="1" parent="C3Y-JflDdJjdfb_KIbu5-72">
          <mxGeometry x="45" y="60" width="10" height="1380" as="geometry" />
        </mxCell>
        <mxCell id="C3Y-JflDdJjdfb_KIbu5-74" value=":Transporteur/livreurs" style="shape=umlLifeline;perimeter=lifelinePerimeter;whiteSpace=wrap;html=1;container=0;dropTarget=0;collapsible=0;recursiveResize=0;outlineConnect=0;portConstraint=eastwest;newEdgeStyle={&quot;edgeStyle&quot;:&quot;elbowEdgeStyle&quot;,&quot;elbow&quot;:&quot;vertical&quot;,&quot;curved&quot;:0,&quot;rounded&quot;:0};" vertex="1" parent="1">
          <mxGeometry x="1220" y="-40" width="120" height="1480" as="geometry" />
        </mxCell>
        <mxCell id="C3Y-JflDdJjdfb_KIbu5-75" value="" style="html=1;points=[];perimeter=orthogonalPerimeter;outlineConnect=0;targetShapes=umlLifeline;portConstraint=eastwest;newEdgeStyle={&quot;edgeStyle&quot;:&quot;elbowEdgeStyle&quot;,&quot;elbow&quot;:&quot;vertical&quot;,&quot;curved&quot;:0,&quot;rounded&quot;:0};" vertex="1" parent="C3Y-JflDdJjdfb_KIbu5-74">
          <mxGeometry x="55" y="60" width="10" height="1390" as="geometry" />
        </mxCell>
        <mxCell id="C3Y-JflDdJjdfb_KIbu5-76" value="" style="endArrow=classic;html=1;rounded=0;" edge="1" parent="1" source="C3Y-JflDdJjdfb_KIbu5-73" target="C3Y-JflDdJjdfb_KIbu5-64">
          <mxGeometry width="50" height="50" relative="1" as="geometry">
            <mxPoint x="2150" y="50" as="sourcePoint" />
            <mxPoint x="1680" y="50" as="targetPoint" />
            <Array as="points">
              <mxPoint x="1885" y="50" />
            </Array>
          </mxGeometry>
        </mxCell>
        <mxCell id="C3Y-JflDdJjdfb_KIbu5-79" value="Départ de COLIS" style="text;html=1;align=center;verticalAlign=middle;resizable=0;points=[];autosize=1;strokeColor=none;fillColor=none;" vertex="1" parent="1">
          <mxGeometry x="1845" y="20" width="120" height="30" as="geometry" />
        </mxCell>
        <mxCell id="C3Y-JflDdJjdfb_KIbu5-80" value="&lt;span style=&quot;font-size: 9px;&quot;&gt;créer COLIS (statut = sortant)&lt;/span&gt;" style="text;html=1;align=center;verticalAlign=middle;resizable=0;points=[];autosize=1;strokeColor=none;fillColor=none;" vertex="1" parent="1">
          <mxGeometry x="1615" y="110" width="140" height="30" as="geometry" />
        </mxCell>
        <mxCell id="C3Y-JflDdJjdfb_KIbu5-81" value="&lt;font style=&quot;font-size: 8px;&quot;&gt;créer INVENTAIRE_COLIS_SORTANT&amp;nbsp;&lt;/font&gt;" style="text;html=1;align=center;verticalAlign=middle;resizable=0;points=[];autosize=1;strokeColor=none;fillColor=none;" vertex="1" parent="1">
          <mxGeometry x="1605" y="160" width="160" height="30" as="geometry" />
        </mxCell>
        <mxCell id="C3Y-JflDdJjdfb_KIbu5-83" value="" style="endArrow=classic;html=1;rounded=0;" edge="1" parent="1" source="C3Y-JflDdJjdfb_KIbu5-75" target="C3Y-JflDdJjdfb_KIbu5-64">
          <mxGeometry width="50" height="50" relative="1" as="geometry">
            <mxPoint x="1605" y="230" as="sourcePoint" />
            <mxPoint x="1325" y="230" as="targetPoint" />
            <Array as="points">
              <mxPoint x="1465" y="260" />
            </Array>
          </mxGeometry>
        </mxCell>
        <mxCell id="C3Y-JflDdJjdfb_KIbu5-84" value="&lt;span style=&quot;font-size: 9px;&quot;&gt;Demande de création de BON_EXPEDITION&lt;/span&gt;" style="text;html=1;align=center;verticalAlign=middle;resizable=0;points=[];autosize=1;strokeColor=none;fillColor=none;" vertex="1" parent="1">
          <mxGeometry x="1375" y="230" width="200" height="30" as="geometry" />
        </mxCell>
        <mxCell id="C3Y-JflDdJjdfb_KIbu5-85" value="Accusé de réception" style="endArrow=open;endSize=12;dashed=1;html=1;rounded=0;" edge="1" parent="1" source="C3Y-JflDdJjdfb_KIbu5-64" target="C3Y-JflDdJjdfb_KIbu5-73">
          <mxGeometry width="160" relative="1" as="geometry">
            <mxPoint x="1705" y="170" as="sourcePoint" />
            <mxPoint x="1865" y="170" as="targetPoint" />
            <Array as="points">
              <mxPoint x="1920" y="240" />
            </Array>
          </mxGeometry>
        </mxCell>
        <mxCell id="C3Y-JflDdJjdfb_KIbu5-86" value="créer de BON_EXPEDITION" style="text;html=1;align=center;verticalAlign=middle;resizable=0;points=[];autosize=1;strokeColor=none;fillColor=none;" vertex="1" parent="1">
          <mxGeometry x="1595" y="278" width="180" height="30" as="geometry" />
        </mxCell>
        <mxCell id="C3Y-JflDdJjdfb_KIbu5-87" value="loop" style="shape=umlFrame;whiteSpace=wrap;html=1;pointerEvents=0;" vertex="1" parent="1">
          <mxGeometry x="1560" y="370" width="250" height="140" as="geometry" />
        </mxCell>
        <mxCell id="C3Y-JflDdJjdfb_KIbu5-88" value="&lt;font style=&quot;font-size: 8px;&quot;&gt;[Pour chaque lot dans le colis]&lt;/font&gt;" style="text;html=1;align=center;verticalAlign=middle;resizable=0;points=[];autosize=1;strokeColor=none;fillColor=none;" vertex="1" parent="1">
          <mxGeometry x="1625" y="370" width="130" height="30" as="geometry" />
        </mxCell>
        <mxCell id="C3Y-JflDdJjdfb_KIbu5-89" value="&lt;font style=&quot;font-size: 8px;&quot;&gt;lire CONTENU_COLIS(idColis)&lt;/font&gt;" style="text;html=1;align=center;verticalAlign=middle;resizable=0;points=[];autosize=1;strokeColor=none;fillColor=none;" vertex="1" parent="1">
          <mxGeometry x="1610" y="390" width="130" height="30" as="geometry" />
        </mxCell>
        <mxCell id="C3Y-JflDdJjdfb_KIbu5-91" value="&lt;font style=&quot;&quot;&gt;&lt;span style=&quot;font-size: 8px;&quot;&gt;créer LIGNES_BONS_EXPEDITION(&lt;/span&gt;&lt;span style=&quot;text-align: left;&quot;&gt;&lt;font style=&quot;font-size: 8px;&quot;&gt;quantiteDemandee&lt;/font&gt;&lt;/span&gt;&lt;span style=&quot;font-size: 8px;&quot;&gt;)&lt;/span&gt;&lt;/font&gt;" style="text;html=1;align=center;verticalAlign=middle;resizable=0;points=[];autosize=1;strokeColor=none;fillColor=none;" vertex="1" parent="1">
          <mxGeometry x="1560" y="440" width="230" height="30" as="geometry" />
        </mxCell>
        <mxCell id="C3Y-JflDdJjdfb_KIbu5-92" value="&lt;font style=&quot;font-size: 9px;&quot;&gt;Bon d&#39;expédition créé (idBon)&lt;/font&gt;" style="endArrow=open;endSize=12;dashed=1;html=1;rounded=0;" edge="1" parent="1" source="C3Y-JflDdJjdfb_KIbu5-64" target="C3Y-JflDdJjdfb_KIbu5-73">
          <mxGeometry width="160" relative="1" as="geometry">
            <mxPoint x="1695" y="550" as="sourcePoint" />
            <mxPoint x="1975" y="550" as="targetPoint" />
            <Array as="points">
              <mxPoint x="1840" y="550" />
            </Array>
            <mxPoint as="offset" />
          </mxGeometry>
        </mxCell>
        <mxCell id="C3Y-JflDdJjdfb_KIbu5-93" value="" style="endArrow=classic;html=1;rounded=0;" edge="1" parent="1" source="C3Y-JflDdJjdfb_KIbu5-73" target="C3Y-JflDdJjdfb_KIbu5-64">
          <mxGeometry width="50" height="50" relative="1" as="geometry">
            <mxPoint x="2045" y="610" as="sourcePoint" />
            <mxPoint x="1765" y="610" as="targetPoint" />
            <Array as="points">
              <mxPoint x="1910" y="610" />
            </Array>
          </mxGeometry>
        </mxCell>
        <mxCell id="C3Y-JflDdJjdfb_KIbu5-94" value="&lt;font style=&quot;font-size: 10px;&quot;&gt;Saisi quantités expédiées (&lt;span style=&quot;text-align: left;&quot;&gt;&lt;font style=&quot;&quot;&gt;quantiteExpediee&lt;/font&gt;&lt;/span&gt;)&lt;/font&gt;" style="text;html=1;align=center;verticalAlign=middle;resizable=0;points=[];autosize=1;strokeColor=none;fillColor=none;" vertex="1" parent="1">
          <mxGeometry x="1795" y="580" width="220" height="30" as="geometry" />
        </mxCell>
        <mxCell id="C3Y-JflDdJjdfb_KIbu5-95" value="&lt;font style=&quot;font-size: 9px;&quot;&gt;[Quantité demandée &amp;lt;&amp;gt; quantité expédiée]&lt;/font&gt;" style="text;html=1;align=center;verticalAlign=middle;resizable=0;points=[];autosize=1;strokeColor=none;fillColor=none;" vertex="1" parent="1">
          <mxGeometry x="1615" y="645" width="190" height="30" as="geometry" />
        </mxCell>
        <mxCell id="C3Y-JflDdJjdfb_KIbu5-96" value="opt" style="shape=umlFrame;whiteSpace=wrap;html=1;pointerEvents=0;" vertex="1" parent="1">
          <mxGeometry x="1565" y="637.5" width="270" height="95" as="geometry" />
        </mxCell>
        <mxCell id="C3Y-JflDdJjdfb_KIbu5-97" value="&lt;font style=&quot;font-size: 9px;&quot;&gt;créer RAPPORT_EXCEPTION&lt;/font&gt;" style="text;html=1;align=center;verticalAlign=middle;resizable=0;points=[];autosize=1;strokeColor=none;fillColor=none;" vertex="1" parent="1">
          <mxGeometry x="1615" y="660" width="150" height="30" as="geometry" />
        </mxCell>
        <mxCell id="C3Y-JflDdJjdfb_KIbu5-98" value="&lt;font style=&quot;font-size: 9px;&quot;&gt;Mettre à jour LIGNES_BON_EXPEDITION&lt;/font&gt;" style="text;html=1;align=center;verticalAlign=middle;resizable=0;points=[];autosize=1;strokeColor=none;fillColor=none;" vertex="1" parent="1">
          <mxGeometry x="1605" y="750" width="190" height="30" as="geometry" />
        </mxCell>
        <mxCell id="C3Y-JflDdJjdfb_KIbu5-99" value="&lt;font style=&quot;font-size: 9px;&quot;&gt;mettre à jour LOT&lt;/font&gt;" style="text;html=1;align=center;verticalAlign=middle;resizable=0;points=[];autosize=1;strokeColor=none;fillColor=none;" vertex="1" parent="1">
          <mxGeometry x="1635" y="820" width="90" height="30" as="geometry" />
        </mxCell>
        <mxCell id="C3Y-JflDdJjdfb_KIbu5-102" value="&lt;font style=&quot;font-size: 9px;&quot;&gt;mettre à jour INVENTAIRE_PRODUIT&lt;/font&gt;" style="text;html=1;align=center;verticalAlign=middle;resizable=0;points=[];autosize=1;strokeColor=none;fillColor=none;" vertex="1" parent="1">
          <mxGeometry x="1595" y="880" width="180" height="30" as="geometry" />
        </mxCell>
        <mxCell id="C3Y-JflDdJjdfb_KIbu5-104" value="&lt;font style=&quot;font-size: 9px;&quot;&gt;Désassigner l&#39;emplacement(idCellule, idLot)&lt;/font&gt;" style="text;html=1;align=center;verticalAlign=middle;resizable=0;points=[];autosize=1;strokeColor=none;fillColor=none;" vertex="1" parent="1">
          <mxGeometry x="1805" y="920" width="200" height="30" as="geometry" />
        </mxCell>
        <mxCell id="C3Y-JflDdJjdfb_KIbu5-105" value="" style="endArrow=classic;html=1;rounded=0;" edge="1" parent="1" source="C3Y-JflDdJjdfb_KIbu5-73" target="C3Y-JflDdJjdfb_KIbu5-64">
          <mxGeometry width="50" height="50" relative="1" as="geometry">
            <mxPoint x="2005" y="980" as="sourcePoint" />
            <mxPoint x="1725" y="980" as="targetPoint" />
            <Array as="points">
              <mxPoint x="1855" y="950" />
            </Array>
          </mxGeometry>
        </mxCell>
        <mxCell id="C3Y-JflDdJjdfb_KIbu5-106" value="&lt;font style=&quot;font-size: 9px;&quot;&gt;Mettre à jour INVENTAIRE_EMPLACEMENT&lt;/font&gt;" style="text;html=1;align=center;verticalAlign=middle;resizable=0;points=[];autosize=1;strokeColor=none;fillColor=none;" vertex="1" parent="1">
          <mxGeometry x="1580" y="970" width="200" height="30" as="geometry" />
        </mxCell>
        <mxCell id="C3Y-JflDdJjdfb_KIbu5-109" value="&lt;font style=&quot;font-size: 9px;&quot;&gt;Confirmation stockage&lt;/font&gt;" style="endArrow=open;endSize=12;dashed=1;html=1;rounded=0;" edge="1" parent="1" source="C3Y-JflDdJjdfb_KIbu5-64" target="C3Y-JflDdJjdfb_KIbu5-73">
          <mxGeometry width="160" relative="1" as="geometry">
            <mxPoint x="1755" y="1040" as="sourcePoint" />
            <mxPoint x="2035" y="1040" as="targetPoint" />
            <Array as="points">
              <mxPoint x="1890" y="1040" />
            </Array>
          </mxGeometry>
        </mxCell>
        <mxCell id="C3Y-JflDdJjdfb_KIbu5-110" value="&lt;font style=&quot;font-size: 9px;&quot;&gt;Mettre à jour COLIS (statut=&quot;expédiée&quot;)&lt;/font&gt;" style="text;html=1;align=center;verticalAlign=middle;resizable=0;points=[];autosize=1;strokeColor=none;fillColor=none;" vertex="1" parent="1">
          <mxGeometry x="1580" y="1050" width="180" height="30" as="geometry" />
        </mxCell>
        <mxCell id="C3Y-JflDdJjdfb_KIbu5-111" value="&lt;font style=&quot;font-size: 9px;&quot;&gt;Mettre à jour INVENTAIRE_COLIS_SORTANT&lt;/font&gt;" style="text;html=1;align=center;verticalAlign=middle;resizable=0;points=[];autosize=1;strokeColor=none;fillColor=none;" vertex="1" parent="1">
          <mxGeometry x="1575" y="1110" width="210" height="30" as="geometry" />
        </mxCell>
        <mxCell id="C3Y-JflDdJjdfb_KIbu5-114" value="Expédition finalisée" style="endArrow=open;endSize=12;dashed=1;html=1;rounded=0;" edge="1" parent="1" source="C3Y-JflDdJjdfb_KIbu5-64" target="C3Y-JflDdJjdfb_KIbu5-73">
          <mxGeometry width="160" relative="1" as="geometry">
            <mxPoint x="1790" y="1180" as="sourcePoint" />
            <mxPoint x="2070" y="1180" as="targetPoint" />
            <Array as="points">
              <mxPoint x="1925" y="1180" />
            </Array>
          </mxGeometry>
        </mxCell>
        <mxCell id="C3Y-JflDdJjdfb_KIbu5-115" value="&lt;b&gt;&lt;font style=&quot;font-size: 24px;&quot;&gt;Cas d&#39;une expédition&lt;/font&gt;&lt;/b&gt;" style="text;html=1;align=center;verticalAlign=middle;resizable=0;points=[];autosize=1;strokeColor=none;fillColor=none;" vertex="1" parent="1">
          <mxGeometry x="1545" y="-160" width="260" height="40" as="geometry" />
        </mxCell>
        <mxCell id="C3Y-JflDdJjdfb_KIbu5-116" value="&lt;font style=&quot;font-size: 9px;&quot;&gt;Confirmation mise à jour&lt;/font&gt;" style="endArrow=open;endSize=12;dashed=1;html=1;rounded=0;" edge="1" parent="1" source="C3Y-JflDdJjdfb_KIbu5-64" target="C3Y-JflDdJjdfb_KIbu5-73">
          <mxGeometry width="160" relative="1" as="geometry">
            <mxPoint x="1680" y="810" as="sourcePoint" />
            <mxPoint x="1960" y="810" as="targetPoint" />
            <Array as="points">
              <mxPoint x="1815" y="810" />
            </Array>
          </mxGeometry>
        </mxCell>
        <mxCell id="C3Y-JflDdJjdfb_KIbu5-117" value=":Responsable de stocks" style="shape=umlLifeline;perimeter=lifelinePerimeter;whiteSpace=wrap;html=1;container=1;dropTarget=0;collapsible=0;recursiveResize=0;outlineConnect=0;portConstraint=eastwest;newEdgeStyle={&quot;curved&quot;:0,&quot;rounded&quot;:0};" vertex="1" parent="1">
          <mxGeometry x="2630" y="-40" width="100" height="1490" as="geometry" />
        </mxCell>
        <mxCell id="C3Y-JflDdJjdfb_KIbu5-118" value=":Responsable de la logistique" style="shape=umlLifeline;perimeter=lifelinePerimeter;whiteSpace=wrap;html=1;container=1;dropTarget=0;collapsible=0;recursiveResize=0;outlineConnect=0;portConstraint=eastwest;newEdgeStyle={&quot;curved&quot;:0,&quot;rounded&quot;:0};" vertex="1" parent="1">
          <mxGeometry x="2930" y="-40" width="100" height="1450" as="geometry" />
        </mxCell>
        <mxCell id="C3Y-JflDdJjdfb_KIbu5-119" value=":Agents de la logistique" style="shape=umlLifeline;perimeter=lifelinePerimeter;whiteSpace=wrap;html=1;container=1;dropTarget=0;collapsible=0;recursiveResize=0;outlineConnect=0;portConstraint=eastwest;newEdgeStyle={&quot;curved&quot;:0,&quot;rounded&quot;:0};" vertex="1" parent="1">
          <mxGeometry x="3320" y="-40" width="100" height="1440" as="geometry" />
        </mxCell>
        <mxCell id="C3Y-JflDdJjdfb_KIbu5-121" value=":SGE" style="shape=umlLifeline;perimeter=lifelinePerimeter;whiteSpace=wrap;html=1;container=1;dropTarget=0;collapsible=0;recursiveResize=0;outlineConnect=0;portConstraint=eastwest;newEdgeStyle={&quot;curved&quot;:0,&quot;rounded&quot;:0};" vertex="1" parent="1">
          <mxGeometry x="3700" y="-40" width="100" height="1450" as="geometry" />
        </mxCell>
        <mxCell id="C3Y-JflDdJjdfb_KIbu5-122" value="&lt;b&gt;&lt;font style=&quot;font-size: 24px;&quot;&gt;Préparation d&#39;une expédition&lt;/font&gt;&lt;/b&gt;" style="text;html=1;align=center;verticalAlign=middle;resizable=0;points=[];autosize=1;strokeColor=none;fillColor=none;" vertex="1" parent="1">
          <mxGeometry x="2975" y="-200" width="350" height="40" as="geometry" />
        </mxCell>
        <mxCell id="C3Y-JflDdJjdfb_KIbu5-123" value="" style="endArrow=classic;html=1;rounded=0;" edge="1" parent="1" source="C3Y-JflDdJjdfb_KIbu5-118" target="C3Y-JflDdJjdfb_KIbu5-121">
          <mxGeometry width="50" height="50" relative="1" as="geometry">
            <mxPoint x="3125" y="200" as="sourcePoint" />
            <mxPoint x="3175" y="150" as="targetPoint" />
            <Array as="points">
              <mxPoint x="3320" y="40" />
            </Array>
          </mxGeometry>
        </mxCell>
        <mxCell id="C3Y-JflDdJjdfb_KIbu5-124" value="&lt;span style=&quot;font-size: 9px;&quot;&gt;Demande de création de BON_EXPEDITION (idDestinataire)&lt;/span&gt;" style="text;html=1;align=center;verticalAlign=middle;resizable=0;points=[];autosize=1;strokeColor=none;fillColor=none;" vertex="1" parent="1">
          <mxGeometry x="3240" y="10" width="270" height="30" as="geometry" />
        </mxCell>
        <mxCell id="C3Y-JflDdJjdfb_KIbu5-127" value="" style="curved=1;endArrow=classic;html=1;rounded=0;" edge="1" parent="1">
          <mxGeometry width="50" height="50" relative="1" as="geometry">
            <mxPoint x="3750" y="100" as="sourcePoint" />
            <mxPoint x="3750" y="80" as="targetPoint" />
            <Array as="points">
              <mxPoint x="3765" y="100" />
              <mxPoint x="3775" y="90" />
              <mxPoint x="3765" y="80" />
            </Array>
          </mxGeometry>
        </mxCell>
        <mxCell id="C3Y-JflDdJjdfb_KIbu5-128" value="&lt;span style=&quot;font-size: 9px;&quot;&gt;Vérifier INVENTAIRE_PRODUIT(quantiteDisponible)&lt;/span&gt;" style="text;html=1;align=center;verticalAlign=middle;resizable=0;points=[];autosize=1;strokeColor=none;fillColor=none;" vertex="1" parent="1">
          <mxGeometry x="3640" y="50" width="230" height="30" as="geometry" />
        </mxCell>
        <mxCell id="C3Y-JflDdJjdfb_KIbu5-129" value="alt" style="shape=umlFrame;whiteSpace=wrap;html=1;pointerEvents=0;" vertex="1" parent="1">
          <mxGeometry x="2640" y="140" width="1370" height="1060" as="geometry" />
        </mxCell>
        <mxCell id="C3Y-JflDdJjdfb_KIbu5-130" value="&lt;font style=&quot;font-size: 10px;&quot;&gt;[Stock suffisant]&lt;/font&gt;" style="text;html=1;align=center;verticalAlign=middle;resizable=0;points=[];autosize=1;strokeColor=none;fillColor=none;" vertex="1" parent="1">
          <mxGeometry x="3195" y="140" width="90" height="30" as="geometry" />
        </mxCell>
        <mxCell id="C3Y-JflDdJjdfb_KIbu5-131" value="" style="curved=1;endArrow=classic;html=1;rounded=0;" edge="1" parent="1">
          <mxGeometry width="50" height="50" relative="1" as="geometry">
            <mxPoint x="3750" y="220" as="sourcePoint" />
            <mxPoint x="3750" y="200" as="targetPoint" />
            <Array as="points">
              <mxPoint x="3765" y="220" />
              <mxPoint x="3775" y="210" />
              <mxPoint x="3765" y="200" />
            </Array>
          </mxGeometry>
        </mxCell>
        <mxCell id="C3Y-JflDdJjdfb_KIbu5-132" value="&lt;span style=&quot;font-size: 9px;&quot;&gt;créer BON_EXPEDITION&lt;/span&gt;" style="text;html=1;align=center;verticalAlign=middle;resizable=0;points=[];autosize=1;strokeColor=none;fillColor=none;" vertex="1" parent="1">
          <mxGeometry x="3700" y="170" width="130" height="30" as="geometry" />
        </mxCell>
        <mxCell id="C3Y-JflDdJjdfb_KIbu5-135" value="" style="endArrow=classic;html=1;rounded=0;" edge="1" parent="1" source="C3Y-JflDdJjdfb_KIbu5-121" target="C3Y-JflDdJjdfb_KIbu5-118">
          <mxGeometry width="50" height="50" relative="1" as="geometry">
            <mxPoint x="3300" y="360" as="sourcePoint" />
            <mxPoint x="3350" y="310" as="targetPoint" />
            <Array as="points">
              <mxPoint x="3400" y="290" />
            </Array>
          </mxGeometry>
        </mxCell>
        <mxCell id="C3Y-JflDdJjdfb_KIbu5-136" value="&lt;span style=&quot;font-size: 9px;&quot;&gt;confirmation (idBon)&lt;/span&gt;" style="text;html=1;align=center;verticalAlign=middle;resizable=0;points=[];autosize=1;strokeColor=none;fillColor=none;" vertex="1" parent="1">
          <mxGeometry x="3320" y="260" width="100" height="30" as="geometry" />
        </mxCell>
        <mxCell id="C3Y-JflDdJjdfb_KIbu5-137" value="" style="endArrow=classic;html=1;rounded=0;" edge="1" parent="1" source="C3Y-JflDdJjdfb_KIbu5-118" target="C3Y-JflDdJjdfb_KIbu5-119">
          <mxGeometry width="50" height="50" relative="1" as="geometry">
            <mxPoint x="3220" y="350" as="sourcePoint" />
            <mxPoint x="3270" y="300" as="targetPoint" />
            <Array as="points">
              <mxPoint x="3170" y="340" />
            </Array>
          </mxGeometry>
        </mxCell>
        <mxCell id="C3Y-JflDdJjdfb_KIbu5-138" value="&lt;span style=&quot;font-size: 9px;&quot;&gt;Ordre de prélèvement (idBon)&lt;/span&gt;" style="text;html=1;align=center;verticalAlign=middle;resizable=0;points=[];autosize=1;strokeColor=none;fillColor=none;" vertex="1" parent="1">
          <mxGeometry x="3080" y="308" width="140" height="30" as="geometry" />
        </mxCell>
        <mxCell id="C3Y-JflDdJjdfb_KIbu5-139" value="" style="endArrow=classic;html=1;rounded=0;" edge="1" parent="1" source="C3Y-JflDdJjdfb_KIbu5-119" target="C3Y-JflDdJjdfb_KIbu5-121">
          <mxGeometry width="50" height="50" relative="1" as="geometry">
            <mxPoint x="3500" y="430" as="sourcePoint" />
            <mxPoint x="3550" y="380" as="targetPoint" />
            <Array as="points">
              <mxPoint x="3560" y="410" />
            </Array>
          </mxGeometry>
        </mxCell>
        <mxCell id="C3Y-JflDdJjdfb_KIbu5-140" value="&lt;span style=&quot;font-size: 9px;&quot;&gt;consultation emplacements (INVENTAIRE_EMPLACEMENT)&lt;/span&gt;" style="text;html=1;align=center;verticalAlign=middle;resizable=0;points=[];autosize=1;strokeColor=none;fillColor=none;" vertex="1" parent="1">
          <mxGeometry x="3425" y="380" width="270" height="30" as="geometry" />
        </mxCell>
        <mxCell id="C3Y-JflDdJjdfb_KIbu5-141" value="Liste des LOTS/CELLULES" style="endArrow=open;endSize=12;dashed=1;html=1;rounded=0;" edge="1" parent="1" source="C3Y-JflDdJjdfb_KIbu5-121" target="C3Y-JflDdJjdfb_KIbu5-119">
          <mxGeometry width="160" relative="1" as="geometry">
            <mxPoint x="3460" y="320" as="sourcePoint" />
            <mxPoint x="3620" y="320" as="targetPoint" />
            <Array as="points">
              <mxPoint x="3550" y="460" />
            </Array>
          </mxGeometry>
        </mxCell>
        <mxCell id="C3Y-JflDdJjdfb_KIbu5-143" value="loop" style="shape=umlFrame;whiteSpace=wrap;html=1;pointerEvents=0;" vertex="1" parent="1">
          <mxGeometry x="3310" y="500" width="540" height="170" as="geometry" />
        </mxCell>
        <mxCell id="C3Y-JflDdJjdfb_KIbu5-144" value="&lt;font style=&quot;font-size: 10px;&quot;&gt;[Pour chaque LOT]&lt;/font&gt;" style="text;html=1;align=center;verticalAlign=middle;resizable=0;points=[];autosize=1;strokeColor=none;fillColor=none;" vertex="1" parent="1">
          <mxGeometry x="3530" y="510" width="110" height="30" as="geometry" />
        </mxCell>
        <mxCell id="C3Y-JflDdJjdfb_KIbu5-145" value="" style="endArrow=classic;html=1;rounded=0;" edge="1" parent="1" source="C3Y-JflDdJjdfb_KIbu5-119" target="C3Y-JflDdJjdfb_KIbu5-121">
          <mxGeometry width="50" height="50" relative="1" as="geometry">
            <mxPoint x="3530" y="630" as="sourcePoint" />
            <mxPoint x="3580" y="580" as="targetPoint" />
            <Array as="points">
              <mxPoint x="3570" y="580" />
            </Array>
          </mxGeometry>
        </mxCell>
        <mxCell id="C3Y-JflDdJjdfb_KIbu5-146" value="&lt;span style=&quot;font-size: 9px;&quot;&gt;Prélèvement (INVENTAIRE_EMPLACEMENT)&lt;/span&gt;" style="text;html=1;align=center;verticalAlign=middle;resizable=0;points=[];autosize=1;strokeColor=none;fillColor=none;" vertex="1" parent="1">
          <mxGeometry x="3460" y="550" width="210" height="30" as="geometry" />
        </mxCell>
        <mxCell id="C3Y-JflDdJjdfb_KIbu5-147" value="" style="curved=1;endArrow=classic;html=1;rounded=0;" edge="1" parent="1">
          <mxGeometry width="50" height="50" relative="1" as="geometry">
            <mxPoint x="3752.5" y="645" as="sourcePoint" />
            <mxPoint x="3752.5" y="625" as="targetPoint" />
            <Array as="points">
              <mxPoint x="3767.5" y="645" />
              <mxPoint x="3777.5" y="635" />
              <mxPoint x="3767.5" y="625" />
            </Array>
          </mxGeometry>
        </mxCell>
        <mxCell id="C3Y-JflDdJjdfb_KIbu5-148" value="&lt;font style=&quot;font-size: 11px;&quot;&gt;Mise à jour&amp;nbsp;INVENTAIRE_PRODUIT (quantiteReservee--)&lt;/font&gt;" style="text;html=1;align=center;verticalAlign=middle;resizable=0;points=[];autosize=1;strokeColor=none;fillColor=none;" vertex="1" parent="1">
          <mxGeometry x="3600" y="590" width="300" height="30" as="geometry" />
        </mxCell>
        <mxCell id="C3Y-JflDdJjdfb_KIbu5-149" value="" style="endArrow=classic;html=1;rounded=0;" edge="1" parent="1" source="C3Y-JflDdJjdfb_KIbu5-119" target="C3Y-JflDdJjdfb_KIbu5-121">
          <mxGeometry width="50" height="50" relative="1" as="geometry">
            <mxPoint x="3380" y="720" as="sourcePoint" />
            <mxPoint x="3760" y="720" as="targetPoint" />
            <Array as="points">
              <mxPoint x="3580" y="720" />
            </Array>
          </mxGeometry>
        </mxCell>
        <mxCell id="C3Y-JflDdJjdfb_KIbu5-150" value="&lt;span style=&quot;font-size: 9px;&quot;&gt;Créer COLIS (statut=&quot;sortant&quot;)&lt;/span&gt;" style="text;html=1;align=center;verticalAlign=middle;resizable=0;points=[];autosize=1;strokeColor=none;fillColor=none;" vertex="1" parent="1">
          <mxGeometry x="3490" y="690" width="150" height="30" as="geometry" />
        </mxCell>
        <mxCell id="C3Y-JflDdJjdfb_KIbu5-151" value="" style="curved=1;endArrow=classic;html=1;rounded=0;" edge="1" parent="1" source="C3Y-JflDdJjdfb_KIbu5-121" target="C3Y-JflDdJjdfb_KIbu5-121">
          <mxGeometry width="50" height="50" relative="1" as="geometry">
            <mxPoint x="3752.5" y="785" as="sourcePoint" />
            <mxPoint x="3752.5" y="765" as="targetPoint" />
            <Array as="points">
              <mxPoint x="3767.5" y="785" />
              <mxPoint x="3777.5" y="775" />
              <mxPoint x="3767.5" y="765" />
            </Array>
          </mxGeometry>
        </mxCell>
        <mxCell id="C3Y-JflDdJjdfb_KIbu5-152" value="&lt;span style=&quot;font-size: 9px;&quot;&gt;Lier LOTS via CONTENU_COLIS&lt;/span&gt;" style="text;html=1;align=center;verticalAlign=middle;resizable=0;points=[];autosize=1;strokeColor=none;fillColor=none;" vertex="1" parent="1">
          <mxGeometry x="3675" y="732.5" width="160" height="30" as="geometry" />
        </mxCell>
        <mxCell id="C3Y-JflDdJjdfb_KIbu5-153" value="" style="endArrow=none;dashed=1;html=1;rounded=0;entryX=1.001;entryY=0.578;entryDx=0;entryDy=0;entryPerimeter=0;exitX=0;exitY=0.576;exitDx=0;exitDy=0;exitPerimeter=0;" edge="1" parent="1">
          <mxGeometry width="50" height="50" relative="1" as="geometry">
            <mxPoint x="2640" y="830" as="sourcePoint" />
            <mxPoint x="4011.37" y="832.1199999999999" as="targetPoint" />
          </mxGeometry>
        </mxCell>
        <mxCell id="C3Y-JflDdJjdfb_KIbu5-154" value="&lt;font style=&quot;font-size: 10px;&quot;&gt;[Stock insuffisant]&lt;/font&gt;" style="text;html=1;align=center;verticalAlign=middle;resizable=0;points=[];autosize=1;strokeColor=none;fillColor=none;" vertex="1" parent="1">
          <mxGeometry x="3230" y="850" width="100" height="30" as="geometry" />
        </mxCell>
        <mxCell id="C3Y-JflDdJjdfb_KIbu5-155" value="" style="endArrow=classic;html=1;rounded=0;" edge="1" parent="1" source="C3Y-JflDdJjdfb_KIbu5-121" target="C3Y-JflDdJjdfb_KIbu5-118">
          <mxGeometry width="50" height="50" relative="1" as="geometry">
            <mxPoint x="3210" y="960" as="sourcePoint" />
            <mxPoint x="3260" y="910" as="targetPoint" />
            <Array as="points">
              <mxPoint x="3380" y="930" />
            </Array>
          </mxGeometry>
        </mxCell>
        <mxCell id="C3Y-JflDdJjdfb_KIbu5-156" value="&lt;font style=&quot;font-size: 12px;&quot;&gt;Alerte seuil critique&lt;/font&gt;" style="text;html=1;align=center;verticalAlign=middle;resizable=0;points=[];autosize=1;strokeColor=none;fillColor=none;" vertex="1" parent="1">
          <mxGeometry x="3220" y="900" width="120" height="30" as="geometry" />
        </mxCell>
        <mxCell id="C3Y-JflDdJjdfb_KIbu5-157" value="" style="endArrow=classic;html=1;rounded=0;" edge="1" parent="1" source="C3Y-JflDdJjdfb_KIbu5-118" target="C3Y-JflDdJjdfb_KIbu5-117">
          <mxGeometry width="50" height="50" relative="1" as="geometry">
            <mxPoint x="3010" y="1000" as="sourcePoint" />
            <mxPoint x="3060" y="950" as="targetPoint" />
            <Array as="points">
              <mxPoint x="2860" y="1020" />
            </Array>
          </mxGeometry>
        </mxCell>
        <mxCell id="C3Y-JflDdJjdfb_KIbu5-158" value="&lt;font size=&quot;1&quot;&gt;Demande de réapprovisionnement&lt;/font&gt;" style="text;html=1;align=center;verticalAlign=middle;resizable=0;points=[];autosize=1;strokeColor=none;fillColor=none;" vertex="1" parent="1">
          <mxGeometry x="2730" y="990" width="180" height="30" as="geometry" />
        </mxCell>
        <mxCell id="C3Y-JflDdJjdfb_KIbu5-159" value=":Responsable de stocks" style="shape=umlLifeline;perimeter=lifelinePerimeter;whiteSpace=wrap;html=1;container=1;dropTarget=0;collapsible=0;recursiveResize=0;outlineConnect=0;portConstraint=eastwest;newEdgeStyle={&quot;curved&quot;:0,&quot;rounded&quot;:0};" vertex="1" parent="1">
          <mxGeometry x="4270" y="-40" width="100" height="600" as="geometry" />
        </mxCell>
        <mxCell id="C3Y-JflDdJjdfb_KIbu5-160" value=":SGE" style="shape=umlLifeline;perimeter=lifelinePerimeter;whiteSpace=wrap;html=1;container=1;dropTarget=0;collapsible=0;recursiveResize=0;outlineConnect=0;portConstraint=eastwest;newEdgeStyle={&quot;curved&quot;:0,&quot;rounded&quot;:0};" vertex="1" parent="1">
          <mxGeometry x="4800" y="-40" width="100" height="610" as="geometry" />
        </mxCell>
        <mxCell id="C3Y-JflDdJjdfb_KIbu5-161" value="" style="endArrow=classic;html=1;rounded=0;" edge="1" parent="1" source="C3Y-JflDdJjdfb_KIbu5-159" target="C3Y-JflDdJjdfb_KIbu5-160">
          <mxGeometry width="50" height="50" relative="1" as="geometry">
            <mxPoint x="4590" y="370" as="sourcePoint" />
            <mxPoint x="4640" y="320" as="targetPoint" />
            <Array as="points">
              <mxPoint x="4570" y="60" />
            </Array>
          </mxGeometry>
        </mxCell>
        <mxCell id="C3Y-JflDdJjdfb_KIbu5-162" value="" style="curved=1;endArrow=classic;html=1;rounded=0;" edge="1" parent="1">
          <mxGeometry width="50" height="50" relative="1" as="geometry">
            <mxPoint x="4850" y="130" as="sourcePoint" />
            <mxPoint x="4850" y="110" as="targetPoint" />
            <Array as="points">
              <mxPoint x="4865" y="130" />
              <mxPoint x="4875" y="120" />
              <mxPoint x="4865" y="110" />
            </Array>
          </mxGeometry>
        </mxCell>
        <mxCell id="C3Y-JflDdJjdfb_KIbu5-164" value="" style="endArrow=classic;html=1;rounded=0;" edge="1" parent="1" source="C3Y-JflDdJjdfb_KIbu5-159" target="C3Y-JflDdJjdfb_KIbu5-160">
          <mxGeometry width="50" height="50" relative="1" as="geometry">
            <mxPoint x="4590" y="370" as="sourcePoint" />
            <mxPoint x="4640" y="320" as="targetPoint" />
            <Array as="points">
              <mxPoint x="4630" y="240" />
            </Array>
          </mxGeometry>
        </mxCell>
        <mxCell id="C3Y-JflDdJjdfb_KIbu5-165" value="Rapport(quantiteDisponible, seuilAlerte, dateExpiration)" style="endArrow=open;endSize=12;dashed=1;html=1;rounded=0;" edge="1" parent="1" source="C3Y-JflDdJjdfb_KIbu5-160" target="C3Y-JflDdJjdfb_KIbu5-159">
          <mxGeometry width="160" relative="1" as="geometry">
            <mxPoint x="4530" y="230" as="sourcePoint" />
            <mxPoint x="4690" y="230" as="targetPoint" />
            <Array as="points">
              <mxPoint x="4620" y="160" />
            </Array>
          </mxGeometry>
        </mxCell>
        <mxCell id="C3Y-JflDdJjdfb_KIbu5-166" value="Confirmation" style="endArrow=open;endSize=12;dashed=1;html=1;rounded=0;" edge="1" parent="1" source="C3Y-JflDdJjdfb_KIbu5-160" target="C3Y-JflDdJjdfb_KIbu5-159">
          <mxGeometry width="160" relative="1" as="geometry">
            <mxPoint x="4851" y="350" as="sourcePoint" />
            <mxPoint x="4320" y="350" as="targetPoint" />
            <Array as="points">
              <mxPoint x="4620" y="330" />
            </Array>
          </mxGeometry>
        </mxCell>
        <mxCell id="C3Y-JflDdJjdfb_KIbu5-167" value="&lt;span style=&quot;font-size: 9px;&quot;&gt;Demande rapport d&#39;inventaire&lt;/span&gt;" style="text;html=1;align=center;verticalAlign=middle;resizable=0;points=[];autosize=1;strokeColor=none;fillColor=none;" vertex="1" parent="1">
          <mxGeometry x="4505" y="30" width="140" height="30" as="geometry" />
        </mxCell>
        <mxCell id="C3Y-JflDdJjdfb_KIbu5-168" value="&lt;span style=&quot;font-size: 9px;&quot;&gt;Demande ajustement seuilAlerte(idProduit)&lt;/span&gt;" style="text;html=1;align=center;verticalAlign=middle;resizable=0;points=[];autosize=1;strokeColor=none;fillColor=none;" vertex="1" parent="1">
          <mxGeometry x="4475" y="210" width="200" height="30" as="geometry" />
        </mxCell>
        <mxCell id="C3Y-JflDdJjdfb_KIbu5-169" value="&lt;span style=&quot;font-size: 9px;&quot;&gt;Requete JOIN(INVENTAIRE_PRODUIT, PRODUIT,LOT)&lt;/span&gt;" style="text;html=1;align=center;verticalAlign=middle;resizable=0;points=[];autosize=1;strokeColor=none;fillColor=none;" vertex="1" parent="1">
          <mxGeometry x="4725" y="70" width="250" height="30" as="geometry" />
        </mxCell>
        <mxCell id="C3Y-JflDdJjdfb_KIbu5-170" value="" style="curved=1;endArrow=classic;html=1;rounded=0;" edge="1" parent="1">
          <mxGeometry width="50" height="50" relative="1" as="geometry">
            <mxPoint x="4850" y="298" as="sourcePoint" />
            <mxPoint x="4850" y="278" as="targetPoint" />
            <Array as="points">
              <mxPoint x="4865" y="298" />
              <mxPoint x="4875" y="288" />
              <mxPoint x="4865" y="278" />
            </Array>
          </mxGeometry>
        </mxCell>
        <mxCell id="C3Y-JflDdJjdfb_KIbu5-171" value="Mise à jour&lt;font size=&quot;1&quot;&gt;&amp;nbsp;INVENTAIRE_PRODUIT&lt;/font&gt;" style="text;html=1;align=center;verticalAlign=middle;resizable=0;points=[];autosize=1;strokeColor=none;fillColor=none;" vertex="1" parent="1">
          <mxGeometry x="4760" y="250" width="190" height="30" as="geometry" />
        </mxCell>
        <mxCell id="C3Y-JflDdJjdfb_KIbu5-174" value="&lt;font style=&quot;font-size: 24px;&quot;&gt;&lt;b&gt;Cas du Responsable de stocks&lt;/b&gt;&lt;/font&gt;" style="text;html=1;align=center;verticalAlign=middle;whiteSpace=wrap;rounded=0;" vertex="1" parent="1">
          <mxGeometry x="4450" y="-160" width="270" height="50" as="geometry" />
        </mxCell>
        <mxCell id="C3Y-JflDdJjdfb_KIbu5-206" value=":Agents de la logistique" style="shape=umlLifeline;perimeter=lifelinePerimeter;whiteSpace=wrap;html=1;container=1;dropTarget=0;collapsible=0;recursiveResize=0;outlineConnect=0;portConstraint=eastwest;newEdgeStyle={&quot;curved&quot;:0,&quot;rounded&quot;:0};" vertex="1" parent="1">
          <mxGeometry x="5690" y="-40" width="100" height="640" as="geometry" />
        </mxCell>
        <mxCell id="C3Y-JflDdJjdfb_KIbu5-207" value=":Responsable de la logistique" style="shape=umlLifeline;perimeter=lifelinePerimeter;whiteSpace=wrap;html=1;container=1;dropTarget=0;collapsible=0;recursiveResize=0;outlineConnect=0;portConstraint=eastwest;newEdgeStyle={&quot;curved&quot;:0,&quot;rounded&quot;:0};" vertex="1" parent="1">
          <mxGeometry x="5900" y="-40" width="100" height="660" as="geometry" />
        </mxCell>
        <mxCell id="C3Y-JflDdJjdfb_KIbu5-208" value=":Responsable de stocks" style="shape=umlLifeline;perimeter=lifelinePerimeter;whiteSpace=wrap;html=1;container=1;dropTarget=0;collapsible=0;recursiveResize=0;outlineConnect=0;portConstraint=eastwest;newEdgeStyle={&quot;curved&quot;:0,&quot;rounded&quot;:0};" vertex="1" parent="1">
          <mxGeometry x="6300" y="-40" width="100" height="680" as="geometry" />
        </mxCell>
        <mxCell id="C3Y-JflDdJjdfb_KIbu5-210" value=":SGE" style="shape=umlLifeline;perimeter=lifelinePerimeter;whiteSpace=wrap;html=1;container=1;dropTarget=0;collapsible=0;recursiveResize=0;outlineConnect=0;portConstraint=eastwest;newEdgeStyle={&quot;curved&quot;:0,&quot;rounded&quot;:0};" vertex="1" parent="1">
          <mxGeometry x="6740" y="-40" width="100" height="1450" as="geometry" />
        </mxCell>
        <mxCell id="C3Y-JflDdJjdfb_KIbu5-211" value="opt" style="shape=umlFrame;whiteSpace=wrap;html=1;pointerEvents=0;" vertex="1" parent="1">
          <mxGeometry x="5670" y="150" width="1170" height="270" as="geometry" />
        </mxCell>
        <mxCell id="C3Y-JflDdJjdfb_KIbu5-212" value="" style="endArrow=classic;html=1;rounded=0;" edge="1" parent="1" source="C3Y-JflDdJjdfb_KIbu5-206" target="C3Y-JflDdJjdfb_KIbu5-210">
          <mxGeometry width="50" height="50" relative="1" as="geometry">
            <mxPoint x="5930" y="110" as="sourcePoint" />
            <mxPoint x="5980" y="60" as="targetPoint" />
            <Array as="points">
              <mxPoint x="6170" y="50" />
            </Array>
          </mxGeometry>
        </mxCell>
        <mxCell id="C3Y-JflDdJjdfb_KIbu5-213" value="&lt;font style=&quot;font-size: 12px;&quot;&gt;Signalement anomalie(RAPPORT_EXCEPTION)&lt;/font&gt;" style="text;html=1;align=center;verticalAlign=middle;resizable=0;points=[];autosize=1;strokeColor=none;fillColor=none;" vertex="1" parent="1">
          <mxGeometry x="6005" y="20" width="280" height="30" as="geometry" />
        </mxCell>
        <mxCell id="C3Y-JflDdJjdfb_KIbu5-214" value="Notification" style="endArrow=open;endSize=12;dashed=1;html=1;rounded=0;" edge="1" parent="1" source="C3Y-JflDdJjdfb_KIbu5-210" target="C3Y-JflDdJjdfb_KIbu5-207">
          <mxGeometry width="160" relative="1" as="geometry">
            <mxPoint x="5790" y="490" as="sourcePoint" />
            <mxPoint x="5950" y="490" as="targetPoint" />
            <Array as="points">
              <mxPoint x="6360" y="110" />
            </Array>
          </mxGeometry>
        </mxCell>
        <mxCell id="C3Y-JflDdJjdfb_KIbu5-216" value="&lt;font style=&quot;font-size: 10px;&quot;&gt;[Problème de livraison]&lt;/font&gt;" style="text;html=1;align=center;verticalAlign=middle;resizable=0;points=[];autosize=1;strokeColor=none;fillColor=none;" vertex="1" parent="1">
          <mxGeometry x="6080" y="160" width="130" height="30" as="geometry" />
        </mxCell>
        <mxCell id="C3Y-JflDdJjdfb_KIbu5-217" value="" style="endArrow=classic;html=1;rounded=0;" edge="1" parent="1" source="C3Y-JflDdJjdfb_KIbu5-207" target="C3Y-JflDdJjdfb_KIbu5-210">
          <mxGeometry width="50" height="50" relative="1" as="geometry">
            <mxPoint x="6170" y="230" as="sourcePoint" />
            <mxPoint x="6220" y="180" as="targetPoint" />
            <Array as="points">
              <mxPoint x="6370" y="230" />
            </Array>
          </mxGeometry>
        </mxCell>
        <mxCell id="C3Y-JflDdJjdfb_KIbu5-218" value="&lt;span style=&quot;font-size: 9px;&quot;&gt;Consulter INVENTAIRE_COLIS_SORTANT&lt;/span&gt;" style="text;html=1;align=center;verticalAlign=middle;resizable=0;points=[];autosize=1;strokeColor=none;fillColor=none;" vertex="1" parent="1">
          <mxGeometry x="6250" y="200" width="200" height="30" as="geometry" />
        </mxCell>
        <mxCell id="C3Y-JflDdJjdfb_KIbu5-219" value="Détails statutLivraison" style="endArrow=open;endSize=12;dashed=1;html=1;rounded=0;" edge="1" parent="1" source="C3Y-JflDdJjdfb_KIbu5-210" target="C3Y-JflDdJjdfb_KIbu5-207">
          <mxGeometry width="160" relative="1" as="geometry">
            <mxPoint x="6800" y="120" as="sourcePoint" />
            <mxPoint x="5959" y="120" as="targetPoint" />
            <Array as="points">
              <mxPoint x="6400" y="300" />
            </Array>
          </mxGeometry>
        </mxCell>
        <mxCell id="C3Y-JflDdJjdfb_KIbu5-220" value="" style="endArrow=classic;html=1;rounded=0;" edge="1" parent="1" source="C3Y-JflDdJjdfb_KIbu5-207" target="C3Y-JflDdJjdfb_KIbu5-210">
          <mxGeometry width="50" height="50" relative="1" as="geometry">
            <mxPoint x="6350" y="300" as="sourcePoint" />
            <mxPoint x="6400" y="250" as="targetPoint" />
            <Array as="points">
              <mxPoint x="6380" y="380" />
            </Array>
          </mxGeometry>
        </mxCell>
        <mxCell id="C3Y-JflDdJjdfb_KIbu5-221" value="&lt;font style=&quot;font-size: 12px;&quot;&gt;Mise à jour statut COLIS&lt;/font&gt;" style="text;html=1;align=center;verticalAlign=middle;resizable=0;points=[];autosize=1;strokeColor=none;fillColor=none;" vertex="1" parent="1">
          <mxGeometry x="6275" y="340" width="150" height="30" as="geometry" />
        </mxCell>
        <mxCell id="C3Y-JflDdJjdfb_KIbu5-225" value="&lt;font style=&quot;font-size: 24px;&quot;&gt;&lt;b&gt;Gestion des exceptions&lt;/b&gt;&lt;/font&gt;" style="text;html=1;align=center;verticalAlign=middle;whiteSpace=wrap;rounded=0;" vertex="1" parent="1">
          <mxGeometry x="6035" y="-160" width="345" height="50" as="geometry" />
        </mxCell>
      </root>
    </mxGraphModel>
  </diagram>
</mxfile>
